<?xml version="1.0" encoding="utf-8"?>
<!-- Generator: Adobe Illustrator 16.0.0, SVG Export Plug-In . SVG Version: 6.00 Build 0)  -->
<!DOCTYPE svg PUBLIC "-//W3C//DTD SVG 1.1//EN" "http://www.w3.org/Graphics/SVG/1.1/DTD/svg11.dtd">
<svg version="1.1" id="图层_1" xmlns="http://www.w3.org/2000/svg" xmlns:xlink="http://www.w3.org/1999/xlink" x="0px" y="0px"
	 width="200px" height="200px" viewBox="0 0 200 200" enable-background="new 0 0 200 200" xml:space="preserve">
<g>
	<defs>
		<rect id="SVGID_1_" width="200" height="200"/>
	</defs>
	<clipPath id="SVGID_2_">
		<use xlink:href="#SVGID_1_"  overflow="visible"/>
	</clipPath>
	<path clip-path="url(#SVGID_2_)" fill-rule="evenodd" clip-rule="evenodd" fill="#EF2F2F" d="M194.754,167.092l-0.272-1.968
		c-0.266-1.964-0.616-3.942-0.956-5.857c-0.225-1.264-0.448-2.527-0.65-3.795c-0.306-1.904-0.569-3.853-0.824-5.735l-0.16-1.18
		c-0.161-1.182-0.313-2.365-0.467-3.549c-0.271-2.09-0.543-4.179-0.855-6.264c-0.27-1.804-0.572-3.605-0.875-5.406
		c-0.281-1.678-0.563-3.355-0.818-5.037c-0.243-1.595-0.456-3.193-0.671-4.793c-0.225-1.673-0.449-3.347-0.705-5.015
		c-0.223-1.451-0.478-2.896-0.732-4.345c-0.282-1.597-0.573-3.248-0.811-4.875c-0.298-2.037-0.55-4.119-0.794-6.131
		c-0.16-1.326-0.321-2.65-0.496-3.976c-0.226-1.692-0.489-3.379-0.752-5.067l-0.604-3.92c-0.484-3.172-0.969-6.346-1.493-9.512
		c-0.609-3.676-1.281-7.611-2.065-11.488c-0.237-1.183-0.842-2.313-1.393-3.281c-1.953-3.431-4.307-5.952-7.193-7.711
		c-2.003-1.221-4.366-2.53-7.063-2.603c-4.542-0.122-9.16-0.151-13.626-0.179l-3.824-0.027c-1.957-0.014-1.976-0.034-2.009-2.065
		c-0.02-1.365-0.004-2.732,0.014-4.1c0.044-3.642,0.089-7.409-0.577-11.11c-0.055-0.309-0.068-0.626-0.083-0.943
		c-0.022-0.468-0.044-0.951-0.18-1.424l-0.182-0.646c-0.958-3.418-1.95-6.954-3.578-10.263c-1.898-3.87-4.164-7.261-6.727-10.08
		c-4.318-4.745-8.97-8.184-14.216-10.516c-3.93-1.746-8.15-3.47-12.769-3.726c-0.906-0.052-1.805-0.146-2.705-0.239
		c-2.146-0.224-4.496-0.406-6.494-0.121c-0.573,0.083-1.145,0.161-1.716,0.24c-3.246,0.446-6.603,0.907-9.832,2.063
		c-3.618,1.297-6.725,2.793-9.498,4.578c-4.58,2.941-8.079,6.153-10.697,9.819c-1.833,2.564-3.611,5.509-5.597,9.268
		c-1.041,1.972-1.675,4.193-2.187,6.121l-0.175,0.66c-0.635,2.383-1.293,4.847-1.457,7.327c-0.206,3.172-0.194,6.403-0.183,9.527
		c0.005,1.297,0.01,2.595,0,3.894c-0.012,1.655-0.094,1.735-1.759,1.736c-1.404,0.001-2.808,0.005-4.211,0.01
		c-3.771,0.013-7.54,0.025-11.306-0.039l-0.313-0.003c-3.296,0-6.425,0.887-9.296,2.635c-3.002,1.829-5.238,4.102-6.645,6.753
		c-1.028,1.929-1.809,3.867-2.322,5.758c-0.449,1.654-0.696,3.376-0.935,5.041c-0.084,0.588-0.168,1.175-0.262,1.76
		c-0.619,3.889-1.22,7.782-1.818,11.674c-0.163,1.058-0.317,2.117-0.471,3.175c-0.249,1.71-0.499,3.418-0.781,5.123
		c-0.222,1.348-0.471,2.694-0.718,4.039c-0.321,1.737-0.651,3.535-0.921,5.315c-0.24,1.596-0.428,3.221-0.609,4.793
		c-0.175,1.514-0.356,3.079-0.581,4.608c-0.429,2.896-0.89,5.788-1.351,8.68c-0.404,2.534-0.807,5.066-1.188,7.604
		c-0.248,1.646-0.462,3.298-0.676,4.949c-0.229,1.777-0.466,3.615-0.743,5.413c-0.249,1.613-0.541,3.22-0.832,4.828
		c-0.324,1.785-0.658,3.632-0.927,5.461c-0.312,2.124-0.582,4.255-0.853,6.385c-0.437,3.453-0.889,7.024-1.522,10.495
		c-0.573,3.16-0.814,6.538-0.758,10.629c0.057,4.529,1.46,8.662,4.292,12.642c3.164,4.444,7.754,6.806,13.276,6.828
		c10.91,0.045,22.49,0.065,37.549,0.065c6.899,0,13.8-0.005,20.699-0.009c6.692-0.004,13.385-0.009,20.078-0.009h0.495v-0.007
		l34.759,0.002c13.945,0,27.892-0.002,41.838-0.013c2.943-0.002,5.529-0.491,7.909-1.498c3.126-1.323,5.715-3.605,7.69-6.78
		c2.475-3.978,3.611-8.483,3.377-13.395C195.792,174.54,195.264,170.754,194.754,167.092 M60.273,93.559
		c-4.883,0-8.842-3.979-8.842-8.889c0-4.909,3.959-8.888,8.842-8.888c4.883,0,8.842,3.979,8.842,8.888
		C69.115,89.58,65.156,93.559,60.273,93.559 M93.918,159.769h-3.041v-3.665h-20.38v3.665h-3.04c0.1-1.935,0.152-3.719,0.152-5.353
		v-17.428c0-1.836-0.052-3.926-0.152-6.271h8.364c0.404-2.753,0.657-4.791,0.76-6.112c1.218,0.403,2.533,0.71,3.954,0.918
		c-0.609,0.918-1.217,2.649-1.826,5.194h15.209c-0.101,2.345-0.152,4.486-0.152,6.421v17.129
		C93.766,156.104,93.817,157.933,93.918,159.769 M66.398,55.377c-0.972,0-1.576-0.041-1.788-0.25
		c-0.209-0.206-0.249-0.798-0.248-1.75c0-1.046-0.023-2.092-0.045-3.139c-0.049-2.317-0.099-4.713,0.111-7.031
		c0.275-2.998,0.982-6.025,1.665-8.951l0.122-0.522c0.731-3.123,2.233-6.204,4.727-9.697c3.601-5.047,7.805-8.742,12.855-11.292
		c3.687-1.863,8.135-3.766,13.181-3.766l0.852,0.004c0.678,0,1.357-0.009,2.036-0.017c0.676-0.008,1.35-0.017,2.025-0.017
		c1.162,0,2.694,0.022,4.236,0.182c2.009,0.209,4.047,1.002,5.844,1.702c2.34,0.909,4.51,1.918,6.449,2.995
		c4.354,2.419,8.04,5.852,11.268,10.495c2.294,3.297,3.829,6.45,4.691,9.641c0.726,2.685,1.205,5.745,1.462,9.357
		c0.176,2.444,0.133,4.958,0.091,7.39c-0.017,0.975-0.034,1.952-0.038,2.927c-0.006,1.608-0.138,1.739-1.761,1.739l-16.119-0.002
		L66.398,55.377z M134.068,139.28h-17.336c0.098-2.038,0.152-4.226,0.152-6.576c0-2.44-0.055-4.739-0.152-6.875h17.336
		c-0.1,1.628-0.151,3.919-0.151,6.875C133.917,135.563,133.969,137.75,134.068,139.28 M109.734,156.559
		c-0.203,1.426-0.709,2.317-1.521,2.676c-0.813,0.357-2.231,0.638-4.258,0.84c0-1.224-0.306-2.396-0.914-3.516
		c1.521,0.098,2.536,0.098,3.044,0c0.505-0.098,0.761-0.561,0.761-1.373v-8.868c-1.217,0.508-2.639,1.27-4.261,2.292
		c-0.405-1.322-0.861-2.344-1.367-3.061c1.823-0.402,3.698-1.067,5.628-1.985v-7.949c-1.826,0-3.399,0.052-4.714,0.15v-2.755
		c1.314,0.104,2.888,0.156,4.714,0.156v-3.978c0-1.731-0.055-3.209-0.152-4.434h3.193c-0.104,1.126-0.153,2.553-0.153,4.284v4.127
		c1.522,0,3.041-0.052,4.563-0.156v2.755c-1.522-0.099-3.041-0.15-4.563-0.15v6.875c1.318-0.709,2.484-1.373,3.497-1.985
		c0,0.82,0.053,1.738,0.153,2.753c-0.913,0.509-2.128,1.172-3.65,1.986V156.559z M136.2,159.313c-3.044,0-5.681-0.026-7.911-0.078
		c-2.231-0.052-4.157-0.437-5.78-1.146c-1.622-0.716-3.141-1.731-4.562-3.06c-0.91,1.934-2.433,3.77-4.563,5.508
		c-0.709-0.82-1.574-1.484-2.584-1.992c2.127-1.321,3.672-3.132,4.637-5.423c0.964-2.298,1.447-4.563,1.447-6.804
		c1.214,0.508,2.331,0.813,3.345,0.912c-0.305,0.611-0.713,2.246-1.218,4.896c1.318,1.731,2.94,2.852,4.867,3.366v-11.01h-3.345
		c-2.131,0-4.209,0.053-6.236,0.149v-2.754c2.027,0.104,4.157,0.157,6.388,0.157h11.256c1.723,0,3.394-0.053,5.02-0.157v2.754
		c-1.522-0.097-3.146-0.149-4.867-0.149h-5.323v4.277h2.279c1.826,0,3.549-0.046,5.171-0.149v2.754
		c-1.622-0.104-3.296-0.156-5.019-0.156h-2.432v4.896c1.113,0.2,2.632,0.306,4.563,0.306c1.923,0,3.953-0.157,6.081-0.463
		C137.009,156.656,136.601,157.782,136.2,159.313 M140.955,93.559c-4.883,0-8.842-3.979-8.842-8.889
		c0-4.909,3.959-8.888,8.842-8.888s8.842,3.979,8.842,8.888C149.797,89.58,145.838,93.559,140.955,93.559"/>
	<rect x="70.497" y="133.316" clip-path="url(#SVGID_2_)" fill="#EF2F2F" width="20.38" height="5.046"/>
	<rect x="70.497" y="140.81" clip-path="url(#SVGID_2_)" fill="#EF2F2F" width="20.38" height="4.896"/>
	<rect x="70.497" y="148.147" clip-path="url(#SVGID_2_)" fill="#EF2F2F" width="20.38" height="5.508"/>
	<rect x="119.621" y="128.427" clip-path="url(#SVGID_2_)" fill="#EF2F2F" width="11.56" height="2.754"/>
	<rect x="119.621" y="133.779" clip-path="url(#SVGID_2_)" fill="#EF2F2F" width="11.56" height="3.053"/>
</g>
</svg>
