<?xml version="1.0" encoding="utf-8"?>
<!-- Generator: Adobe Illustrator 16.0.0, SVG Export Plug-In . SVG Version: 6.00 Build 0)  -->
<!DOCTYPE svg PUBLIC "-//W3C//DTD SVG 1.1//EN" "http://www.w3.org/Graphics/SVG/1.1/DTD/svg11.dtd">
<svg version="1.1" id="图层_1" xmlns="http://www.w3.org/2000/svg" xmlns:xlink="http://www.w3.org/1999/xlink" x="0px" y="0px"
	 width="200px" height="200px" viewBox="0 0 200 200" enable-background="new 0 0 200 200" xml:space="preserve">
<g>
	<defs>
		<rect id="SVGID_1_" width="200" height="200"/>
	</defs>
	<clipPath id="SVGID_2_">
		<use xlink:href="#SVGID_1_"  overflow="visible"/>
	</clipPath>
	<path clip-path="url(#SVGID_2_)" fill-rule="evenodd" clip-rule="evenodd" fill="#EF2F2F" d="M64.238,171.423
		c-7.887,0-14.275,6.394-14.275,14.288S56.351,200,64.238,200s14.275-6.395,14.275-14.289S72.132,171.423,64.238,171.423
		 M164.163,171.423c-7.888,0-14.275,6.394-14.275,14.288S156.275,200,164.163,200c7.887,0,14.274-6.395,14.274-14.289
		S172.057,171.423,164.163,171.423 M194.562,27.792c-3.646-4.122-8.658-6.359-14.11-6.359H37.436l-0.506-2.907
		C35.681,8.131,26.537,0,16.117,0H7.138C3.191,0,0,3.194,0,7.145c0,3.951,3.191,7.144,7.138,7.144h8.979
		c3.105,0,6.273,2.829,6.695,6.309l6.894,39.851l12.106,85.311c1.256,10.395,10.299,18.561,20.584,18.561h116.042
		c3.947,0,7.139-3.192,7.139-7.144s-3.191-7.146-7.139-7.146H62.396c-3.04,0-6.031-2.813-6.43-6.129l-1.185-8.338l113.244-7.009
		c10.278,0,19.321-8.151,20.534-18.168l11.249-64.378C200.643,39.13,198.729,32.5,194.562,27.792"/>
</g>
</svg>
