<?xml version="1.0" encoding="utf-8"?>
<!-- Generator: Adobe Illustrator 16.0.0, SVG Export Plug-In . SVG Version: 6.00 Build 0)  -->
<!DOCTYPE svg PUBLIC "-//W3C//DTD SVG 1.1//EN" "http://www.w3.org/Graphics/SVG/1.1/DTD/svg11.dtd">
<svg version="1.1" id="图层_1" xmlns="http://www.w3.org/2000/svg" xmlns:xlink="http://www.w3.org/1999/xlink" x="0px" y="0px"
	 width="200px" height="200px" viewBox="0 0 200 200" enable-background="new 0 0 200 200" xml:space="preserve">
<g>
	<defs>
		<rect id="SVGID_1_" width="200" height="200"/>
	</defs>
	<clipPath id="SVGID_2_">
		<use xlink:href="#SVGID_1_"  overflow="visible"/>
	</clipPath>
	<path clip-path="url(#SVGID_2_)" fill-rule="evenodd" clip-rule="evenodd" fill="#EF2F2F" d="M132.706,189.834
		c-4.248,0-8.496-1.625-11.73-4.874l-41.945-42.146l7.82-7.855l58.533-58.814l7.82-7.857l41.945,42.145
		c6.468,6.499,6.468,17.073,0,23.572l-50.714,50.956C141.202,188.209,136.954,189.834,132.706,189.834"/>
	<polygon clip-path="url(#SVGID_2_)" fill-rule="evenodd" clip-rule="evenodd" fill="#EF2F2F" points="0,188.889 11.059,200 
		199.532,0 	"/>
	<path clip-path="url(#SVGID_2_)" fill="#EF2F2F" d="M84.561,32.65c-3.133-3.148-7.299-4.882-11.73-4.882H16.588
		c-6.098,0-11.059,4.985-11.059,11.111v56.512c0,4.453,1.726,8.638,4.859,11.786l29.937,30.081l66.353-66.67l7.82-7.858
		L84.561,32.65z M69.721,86.555l-3.414,3.219l-8.137-8.625l-9.244,8.719l-2.461-2.61l9.244-8.719l-3.888-4.125l-9.245,8.719
		l-2.459-2.609l7.538-7.11l-22.586-6.379l3.793-3.574l21.984,6.407l-5.203-22.235l3.699-3.488l5.141,22.832l7.584-7.156l2.459,2.609
		l-9.291,8.766l3.888,4.125l9.291-8.766l2.461,2.609l-9.291,8.766L69.721,86.555z"/>
</g>
</svg>
