<?xml version="1.0" encoding="utf-8"?>
<!-- Generator: Adobe Illustrator 16.0.0, SVG Export Plug-In . SVG Version: 6.00 Build 0)  -->
<!DOCTYPE svg PUBLIC "-//W3C//DTD SVG 1.1//EN" "http://www.w3.org/Graphics/SVG/1.1/DTD/svg11.dtd">
<svg version="1.1" id="图层_1" xmlns="http://www.w3.org/2000/svg" xmlns:xlink="http://www.w3.org/1999/xlink" x="0px" y="0px"
	 width="200px" height="200px" viewBox="0 0 200 200" enable-background="new 0 0 200 200" xml:space="preserve">
<g>
	<defs>
		<rect id="SVGID_1_" width="200" height="200"/>
	</defs>
	<clipPath id="SVGID_2_">
		<use xlink:href="#SVGID_1_"  overflow="visible"/>
	</clipPath>
	<path clip-path="url(#SVGID_2_)" fill-rule="evenodd" clip-rule="evenodd" fill="#48D3BA" d="M199.886,45.139
		c0-5.453-1.942-10.127-5.825-13.91C190.177,27.445,185.493,27,179.897,27H19.989c-5.597,0-10.28,0.445-14.163,4.229
		C1.941,35.012,0,39.686,0,45.139v107.942c0,2.782,0.572,5.342,1.6,7.678c1.142,2.337,2.627,4.452,4.568,6.232
		c1.942,1.78,4.112,3.227,6.625,4.229c2.513,1.001,9.48,1.78,12.222,1.78h154.883c2.741,0,5.939-0.779,8.338-1.78
		c2.398-1.002,4.454-2.448,6.168-4.229c1.713-1.78,3.083-3.896,4.112-6.232c0.913-2.336,1.484-4.896,1.484-7.678v-38.503h-50.028
		c-5.14,0-9.024-1.893-11.765-3.896c-2.741-2.003-4.684-4.228-5.825-6.677c-1.485-2.893-2.285-6.231-2.399-9.904
		c0-5.452,1.942-10.126,5.825-13.798c3.884-3.784,8.567-4.563,14.164-4.563H200V45.139H199.886z M117.876,113.465l-17.134,12.018
		c0,0-0.113,0-0.113,0.112c-0.229,0.222-0.571,0.334-0.8,0.445c0,0-0.114,0-0.114,0.11c-0.228,0.111-0.571,0.111-0.8,0.111h-0.228
		h-0.114h-0.229c-0.457,0-0.799-0.222-1.256-0.333c-0.115,0-0.115-0.112-0.229-0.112c-0.457-0.222-0.799-0.556-1.142-1.001
		c0,0,0-0.11-0.114-0.11c-0.114-0.224-0.229-0.334-0.343-0.558l-8.109-19.028c-0.8-1.78,0.114-3.896,1.941-4.563
		c1.828-0.779,3.998,0.111,4.683,1.892l5.14,12.019c1.828-4.451,2.742-9.237,2.742-14.133c0-21.477-17.933-38.948-39.978-38.948
		c-22.044,0-39.977,17.471-39.977,38.948c0,21.477,17.933,38.948,39.977,38.948c7.196,0,14.278-1.893,20.446-5.453
		c0.228-0.111,0.457-0.223,0.685-0.223c1.599-1.001,3.084-2.003,4.569-3.115c1.599-1.225,3.883-1.001,5.14,0.444
		c1.256,1.559,1.028,3.784-0.457,5.008c-1.827,1.446-3.769,2.782-5.825,4.007c-0.343,0.222-0.686,0.334-1.142,0.444
		c-7.082,4.006-15.192,6.121-23.416,6.121c-26.042,0-47.173-20.587-47.173-45.959c0-25.929,21.131-46.516,47.173-46.516
		c26.043,0,47.174,20.587,47.174,45.959c0,4.118-0.572,8.234-1.714,12.241l6.396-4.563c1.601-1.113,3.885-0.779,5.026,0.778
		C119.932,110.127,119.589,112.241,117.876,113.465 M72.302,96.328c2.056,0,3.655,1.558,3.655,3.561s-1.599,3.562-3.655,3.562
		h-7.196v3.561h7.196c2.056,0,3.655,1.558,3.655,3.562c0,2.003-1.599,3.561-3.655,3.561h-7.196v7.456
		c0,2.003-1.599,3.561-3.655,3.561s-3.655-1.558-3.655-3.561v-7.456H50.6c-2.056,0-3.655-1.558-3.655-3.561
		c0-2.004,1.599-3.562,3.655-3.562h7.196v-3.561H50.6c-2.056,0-3.655-1.559-3.655-3.562s1.599-3.561,3.655-3.561h7.196v-2.114
		l-10.166-9.57c-1.485-1.336-1.485-3.561-0.114-5.008c1.371-1.447,3.655-1.447,5.14-0.111l9.023,8.457l9.024-8.457
		c1.485-1.336,3.769-1.336,5.14,0.111c1.371,1.447,1.371,3.672-0.114,5.008L64.992,94.77v1.558H72.302z"/>
	<path clip-path="url(#SVGID_2_)" fill-rule="evenodd" clip-rule="evenodd" fill="#48D3BA" d="M142.89,87.091
		c-1.941,1.892-2.854,4.229-2.854,6.899c0,2.782,0.913,5.119,2.854,7.011c1.942,1.892,4.227,2.893,7.082,2.893
		c2.741,0,5.14-1.001,7.081-2.893c1.942-1.893,2.856-4.34,2.856-7.011c0-2.782-0.914-5.007-2.856-6.899
		c-1.941-1.892-4.226-2.782-7.081-2.782S144.832,85.312,142.89,87.091"/>
</g>
</svg>
