<?xml version="1.0" encoding="utf-8"?>
<!-- Generator: Adobe Illustrator 16.0.0, SVG Export Plug-In . SVG Version: 6.00 Build 0)  -->
<!DOCTYPE svg PUBLIC "-//W3C//DTD SVG 1.1//EN" "http://www.w3.org/Graphics/SVG/1.1/DTD/svg11.dtd">
<svg version="1.1" id="图层_1" xmlns="http://www.w3.org/2000/svg" xmlns:xlink="http://www.w3.org/1999/xlink" x="0px" y="0px"
	 width="200px" height="200px" viewBox="0 0 200 200" enable-background="new 0 0 200 200" xml:space="preserve">
<g>
	<defs>
		<rect id="SVGID_1_" width="200" height="200"/>
	</defs>
	<clipPath id="SVGID_2_">
		<use xlink:href="#SVGID_1_"  overflow="visible"/>
	</clipPath>
	<path clip-path="url(#SVGID_2_)" fill="#F6B537" d="M168.649,187.695c-1.283-0.902-3.676-0.263-5.568-0.264
		c-14.477-0.01-28.952-0.005-44.794-0.005c4.089-4.327,7.021-7.608,10.14-10.701c14.538-14.414,28.132-29.609,38.182-47.584
		c9.897-17.701,17.163-36.059,13.722-57.087c-5.217-31.871-22.059-54.838-52.386-66.374C98.506-5.518,71.104,0.149,47.002,19.952
		c-26.879,22.084-35.447,61.605-21.777,93.496c14.608,34.078,40.595,58.905,66.726,83.666c1.788,1.694,5.011,2.599,7.581,2.627
		c22.945,0.264,45.895,0.399,68.835,0.049c2.01-0.031,5.446-3.744,5.521-5.844C173.963,191.875,170.895,189.273,168.649,187.695
		 M100.085,122.124c-21.766-0.068-40.815-19.18-40.765-40.898c0.025-10.687,4.334-20.804,12.135-28.489
		c7.725-7.61,17.796-11.782,28.408-11.782c0.173,0,0.345,0.001,0.52,0.004c21.647,0.279,39.895,18.952,39.848,40.777
		c-0.022,10.624-4.26,20.728-11.931,28.451c-7.649,7.701-17.622,11.938-28.093,11.938H100.085z"/>
	<path clip-path="url(#SVGID_2_)" fill="#F6B537" d="M100.542,46.016c-0.15-0.002-0.303-0.003-0.454-0.003
		c-9.276,0-18.087,3.657-24.859,10.327c-6.832,6.729-10.605,15.571-10.626,24.898c-0.045,19.026,16.649,35.768,35.722,35.829h0.106
		c9.114,0,17.813-3.707,24.506-10.444c6.727-6.771,10.441-15.613,10.462-24.896C135.438,62.942,119.15,46.256,100.542,46.016
		 M99.604,100.201c-9.672-0.219-18.425-9.192-18.377-18.839c0.053-10.517,8.445-18.668,19.035-18.485
		c9.911,0.171,18.669,9.004,18.511,18.67C118.604,91.805,109.741,100.43,99.604,100.201"/>
	<path clip-path="url(#SVGID_2_)" fill="#F6B537" d="M37.139,199.755c-4.208,0-8.586,0.697-12.562-0.262
		c-2.393-0.577-5.75-3.72-5.773-5.743c-0.025-2.095,3.32-5.88,5.431-6.056c8.574-0.718,17.275-0.746,25.849-0.048
		c1.973,0.161,4.784,4.089,5.032,6.507c0.171,1.656-3.181,4.839-5.398,5.322c-4.02,0.876-8.368,0.248-12.579,0.248
		C37.139,199.734,37.139,199.744,37.139,199.755"/>
</g>
</svg>
