<?xml version="1.0" encoding="utf-8"?>
<!-- Generator: Adobe Illustrator 16.0.0, SVG Export Plug-In . SVG Version: 6.00 Build 0)  -->
<!DOCTYPE svg PUBLIC "-//W3C//DTD SVG 1.1//EN" "http://www.w3.org/Graphics/SVG/1.1/DTD/svg11.dtd">
<svg version="1.1" id="图层_1" xmlns="http://www.w3.org/2000/svg" xmlns:xlink="http://www.w3.org/1999/xlink" x="0px" y="0px"
	 width="200px" height="200px" viewBox="0 0 200 200" enable-background="new 0 0 200 200" xml:space="preserve">
<g>
	<defs>
		<rect id="SVGID_1_" width="200" height="200"/>
	</defs>
	<clipPath id="SVGID_2_">
		<use xlink:href="#SVGID_1_"  overflow="visible"/>
	</clipPath>
	<path clip-path="url(#SVGID_2_)" fill-rule="evenodd" clip-rule="evenodd" fill="#7598F1" d="M200,76.693V46.667
		c0-7.364-5.597-13.333-12.5-13.333H37.418c0,3.682-2.798,6.667-6.25,6.667c-3.452,0-6.25-2.985-6.25-6.667H12.5
		C5.596,33.333,0,39.303,0,46.667v106.667c0,7.363,5.596,13.332,12.5,13.332h12.418c0-3.682,2.798-6.665,6.25-6.665
		c3.452,0,6.25,2.983,6.25,6.665H187.5c6.903,0,12.5-5.969,12.5-13.332v-30.443c-7.472-4.611-12.5-13.229-12.5-23.099
		C187.5,89.921,192.528,81.305,200,76.693 M31.168,146.666c-3.452,0-6.25-2.984-6.25-6.665c0-3.683,2.798-6.667,6.25-6.667
		c3.452,0,6.25,2.984,6.25,6.667C37.418,143.682,34.62,146.666,31.168,146.666 M31.168,120.001c-3.452,0-6.25-2.985-6.25-6.667
		c0-3.683,2.798-6.668,6.25-6.668c3.452,0,6.25,2.985,6.25,6.668C37.418,117.016,34.62,120.001,31.168,120.001 M31.168,93.333
		c-3.452,0-6.25-2.985-6.25-6.667S27.716,80,31.168,80c3.452,0,6.25,2.984,6.25,6.666S34.62,93.333,31.168,93.333 M31.168,66.667
		c-3.452,0-6.25-2.985-6.25-6.667c0-3.681,2.798-6.666,6.25-6.666c3.452,0,6.25,2.985,6.25,6.666
		C37.418,63.682,34.62,66.667,31.168,66.667 M140.531,68.807l-16.245,27.652h12.063c2.087,0,3.778,1.837,3.778,4.063
		c0,2.226-1.691,4.063-3.778,4.063h-14.67v11.042h14.67c2.087,0,3.689,1.84,3.689,4.065v0.104c0,2.226-1.603,3.956-3.689,3.956
		h-14.67v11.185c0,2.797-2.163,5.065-4.785,5.065s-4.785-2.269-4.785-5.065v-11.185H96.817c-2.087,0-3.849-1.73-3.849-3.956v-0.104
		c0-2.226,1.762-4.065,3.849-4.065h15.292v-11.042H96.817c-2.087,0-3.779-1.837-3.779-4.063c0-2.226,1.692-4.063,3.779-4.063h12.547
		L94.435,68.744c-1.22-2.266-0.402-5.152,1.789-6.321l0.072-0.034c2.062-1.1,4.571-0.248,5.66,1.919l15.622,29.442l15.629-29.572
		c1.117-2.107,3.512-2.911,5.66-1.829v-0.007C141.016,63.54,141.862,66.534,140.531,68.807"/>
</g>
</svg>
