<?xml version="1.0" standalone="no"?><!DOCTYPE svg PUBLIC "-//W3C//DTD SVG 1.1//EN" "http://www.w3.org/Graphics/SVG/1.1/DTD/svg11.dtd"><svg t="1497317006586" class="icon" style="" viewBox="0 0 1027 1024" version="1.1" xmlns="http://www.w3.org/2000/svg" p-id="2388" xmlns:xlink="http://www.w3.org/1999/xlink" width="200.5859375" height="200"><defs><style type="text/css"></style></defs><path d="M983.877256 313.453383a511.93883 511.93883 0 1 0 40.083197 198.619611 509.98159 509.98159 0 0 0-40.083197-198.619611z m-25.685419 386.434187a482.472988 482.472988 0 0 1-927.061323-187.680518A482.338931 482.338931 0 0 1 854.806683 170.896624a483.22371 483.22371 0 0 1 103.411965 528.990946z" fill="#ffca2f" p-id="2389"></path><path d="M823.544471 202.266082a436.544884 436.544884 0 1 0 93.840259 139.419814 436.544884 436.544884 0 0 0-93.840259-139.419814z m-103.626457 417.321038a21.690506 21.690506 0 0 1-21.690506 21.717317h-152.048031v131.805346a21.690506 21.690506 0 0 1-21.690505 21.690506h-21.77094a21.690506 21.690506 0 0 1-21.690506-21.690506v-131.805346H329.033118a21.717317 21.717317 0 0 1-21.717317-21.717317v-21.690506a21.717317 21.717317 0 0 1 21.717317-21.717317h152.02122v-85.421447h-128.695213a21.717317 21.717317 0 0 1-21.717317-21.690506v-21.690505a21.717317 21.717317 0 0 1 21.717317-21.77094h48.099836L335.199764 315.437435c-4.692013-8.043451 0-19.223847 10.724601-25.229624l19.143413-10.724601c10.724601-6.005777 23.031081-4.370275 27.66947 3.56593l84.268553 142.449513H550.228014L634.523378 283.263632c4.745636-8.043451 17.13255-9.571706 27.723094-3.56593l19.143413 10.724601c10.563732 5.978965 15.362991 17.293419 10.724601 25.229624l-65.098328 109.92716h48.260704a21.717317 21.717317 0 0 1 21.690506 21.77094v21.690506a21.690506 21.690506 0 0 1-21.690506 21.690505h-129.097385v85.394636h152.048031a21.717317 21.717317 0 0 1 21.690506 21.717317z" fill="#ffca2f" p-id="2390"></path></svg>