<?xml version="1.0" encoding="utf-8"?>
<!-- Generator: Adobe Illustrator 16.0.0, SVG Export Plug-In . SVG Version: 6.00 Build 0)  -->
<!DOCTYPE svg PUBLIC "-//W3C//DTD SVG 1.1//EN" "http://www.w3.org/Graphics/SVG/1.1/DTD/svg11.dtd">
<svg version="1.1" id="图层_1" xmlns="http://www.w3.org/2000/svg" xmlns:xlink="http://www.w3.org/1999/xlink" x="0px" y="0px"
	 width="200px" height="200px" viewBox="0 0 200 200" enable-background="new 0 0 200 200" xml:space="preserve">
<path fill="#F8BF01" d="M172.399,75.068H47.219c-14.864,0-26.91,12.047-26.91,26.91v65.117c0,14.857,12.046,26.904,26.91,26.904
	h125.181c14.865,0,26.909-12.047,26.909-26.904v-65.117C199.309,87.115,187.263,75.068,172.399,75.068z M106.631,178.738H40.429
	v-11.525h66.202V178.738z M179.188,156.953H40.429v-19.592h138.759V156.953z M179.188,120.182h-27.47
	c-3.166,3.719-7.819,6.125-13.082,6.125c-9.52,0-17.24-7.719-17.24-17.238c0-9.529,7.721-17.249,17.24-17.249
	c5.263,0,9.911,2.408,13.077,6.12h27.475V120.182z"/>
<path fill="#F8BF01" d="M23.976,73.934l-10.097,3.76c-1.664-6.882,1.98-14.087,8.776-16.62l117.316-43.673
	c6.797-2.533,14.263,0.533,17.509,6.826L46.424,65.579c0.267-0.005,0.527-0.042,0.794-0.042h97.444l24.924-9.279l3.47,9.31
	c5.308,0.099,10.327,1.34,14.858,3.487l-17.769-47.738c-5.188-13.926-20.68-21.013-34.613-15.831L18.223,49.164
	C4.291,54.346-2.797,69.843,2.391,83.77l8.385,22.521v-4.313C10.776,90.708,15.92,80.623,23.976,73.934z"/>
</svg>
