<?xml version="1.0" encoding="utf-8"?>
<!-- Generator: Adobe Illustrator 19.0.0, SVG Export Plug-In . SVG Version: 6.00 Build 0)  -->
<svg version="1.1" id="图层_1" xmlns="http://www.w3.org/2000/svg" xmlns:xlink="http://www.w3.org/1999/xlink" x="0px" y="0px"
	 viewBox="0 0 200 200" style="enable-background:new 0 0 200 200;" xml:space="preserve">
<style type="text/css">
	.st0{opacity:0.5;}
	.st1{fill:#FF4902;}
	.st2{opacity:0.5;fill:#FFFFFF;enable-background:new    ;}
	.st3{opacity:0.3;}
	.st4{fill:#FFFFFF;}
	.st5{fill:url(#SVGID_1_);}
	.st6{fill:url(#SVGID_2_);}
</style>
<g>
	<g id="XMLID_1_" class="st0">
		<circle id="XMLID_25_" class="st1" cx="1000" cy="1000" r="99"/>
	</g>
	<path id="XMLID_17_" class="st2" d="M1000,900c-55.2,0-100,44.8-100,100c0,55.2,44.8,100,100,100c55.2,0,100-44.8,100-100
		S1055.2,900,1000,900z M1000,1099c-54.7,0-99-44.3-99-99s44.3-99,99-99c54.7,0,99,44.3,99,99C1099,1054.7,1054.7,1099,1000,1099z"
		/>
	<g id="XMLID_19_" class="st3">
		<path id="XMLID_28_" class="st4" d="M1000,901c-54.7,0-99,44.3-99,99c0,27.5,11.2,52.3,29.3,70.3l140-140
			C1052.3,912.2,1027.5,901,1000,901z"/>
	</g>
	<g>
		
			<linearGradient id="SVGID_1_" gradientUnits="userSpaceOnUse" x1="947.6748" y1="-852.3213" x2="1052.317" y2="-747.6788" gradientTransform="matrix(1 0 0 -1 0 200)">
			<stop  offset="0" style="stop-color:#FFE006"/>
			<stop  offset="0.5468" style="stop-color:#FFF2A6"/>
			<stop  offset="1" style="stop-color:#FFE006"/>
		</linearGradient>
		<path class="st5" d="M952,944.6c-5,2.8-7.4,5.9-7.4,9.2v9.2c0,3.3,2.5,6.4,7.4,9.2c5,2.8,11.7,5.1,20.2,6.7
			c8.5,1.7,17.8,2.5,27.8,2.5s19.3-0.8,27.8-2.5c8.5-1.7,15.3-3.9,20.2-6.7c5-2.8,7.4-5.9,7.4-9.2v-9.2c0-3.3-2.5-6.4-7.4-9.2
			s-11.7-5.1-20.2-6.7c-8.5-1.7-17.8-2.5-27.8-2.5s-19.3,0.8-27.8,2.5C963.7,939.5,957,941.7,952,944.6L952,944.6z M944.6,1006.2
			v12.3c0,3.3,2.5,6.4,7.4,9.2c5,2.8,11.7,5.1,20.2,6.7c8.5,1.7,17.8,2.5,27.8,2.5s19.3-0.8,27.8-2.5c8.5-1.7,15.3-3.9,20.2-6.7
			s7.4-5.9,7.4-9.2v-12.3c-5.7,4-13.5,7.1-23.5,9.2c-9.9,2.1-20.6,3.1-32,3.1s-22.1-1-32-3.1
			C958.1,1013.3,950.3,1010.2,944.6,1006.2L944.6,1006.2z M944.6,1033.9v12.3c0,3.3,2.5,6.4,7.4,9.2c5,2.8,11.7,5.1,20.2,6.7
			c8.5,1.7,17.8,2.5,27.8,2.5s19.3-0.8,27.8-2.5c8.5-1.7,15.3-3.9,20.2-6.7s7.4-5.9,7.4-9.2v-12.3c-5.7,4-13.5,7.1-23.5,9.2
			c-9.9,2.1-20.6,3.1-32,3.1c-11.4,0-22.1-1-32-3.1C958.1,1041,950.3,1038,944.6,1033.9L944.6,1033.9z M944.6,978.5v12.3
			c0,3.3,2.5,6.4,7.4,9.2c5,2.8,11.7,5.1,20.2,6.7c8.5,1.7,17.8,2.5,27.8,2.5s19.3-0.8,27.8-2.5c8.5-1.7,15.3-3.9,20.2-6.7
			s7.4-5.9,7.4-9.2v-12.3c-5.7,4-13.5,7.1-23.5,9.2c-9.9,2.1-20.6,3.1-32,3.1c-11.4,0-22.1-1-32-3.1
			C958.1,985.6,950.3,982.5,944.6,978.5L944.6,978.5z"/>
	</g>
</g>
<g>
	<g>
		<g id="XMLID_5_" class="st0">
			<circle id="XMLID_6_" class="st1" cx="100" cy="100" r="99"/>
		</g>
		<path id="XMLID_4_" class="st2" d="M100,0C44.8,0,0,44.8,0,100s44.8,100,100,100s100-44.8,100-100S155.2,0,100,0z M100,199
			c-54.7,0-99-44.3-99-99S45.3,1,100,1s99,44.3,99,99S154.7,199,100,199z"/>
		<g id="XMLID_2_" class="st3">
			<path id="XMLID_3_" class="st4" d="M100,1C45.3,1,1,45.3,1,100c0,27.5,11.2,52.3,29.3,70.3l140-140C152.3,12.2,127.5,1,100,1z"/>
		</g>
	</g>
	<linearGradient id="SVGID_2_" gradientUnits="userSpaceOnUse" x1="58.6123" y1="60.4209" x2="139.7148" y2="141.5233">
		<stop  offset="0" style="stop-color:#FFE006"/>
		<stop  offset="0.5468" style="stop-color:#FFF2A6"/>
		<stop  offset="1" style="stop-color:#FFE006"/>
	</linearGradient>
	<path class="st6" d="M62,58c-3.8,2.2-5.8,4.6-5.8,7.2v7.2c0,2.6,1.9,5,5.8,7.2c3.8,2.2,9.1,3.9,15.7,5.2c6.6,1.3,13.8,1.9,21.5,1.9
		s14.9-0.6,21.5-1.9c6.6-1.3,11.8-3,15.7-5.2s5.8-4.6,5.8-7.2v-7.2c0-2.6-1.9-5-5.8-7.2c-3.8-2.2-9.1-3.9-15.7-5.2
		c-6.6-1.3-13.8-1.9-21.5-1.9s-14.9,0.6-21.5,1.9C71,54.1,65.8,55.8,62,58 M56.2,105.8v9.5c0,2.6,1.9,5,5.8,7.2
		c3.8,2.2,9.1,3.9,15.7,5.2c6.6,1.3,13.8,1.9,21.5,1.9s14.9-0.6,21.5-1.9c6.6-1.3,11.8-3,15.7-5.2c3.8-2.2,5.8-4.6,5.8-7.2v-9.5
		c-4.4,3.1-10.5,5.5-18.2,7.1c-7.7,1.6-15.9,2.4-24.8,2.4s-17.1-0.8-24.8-2.4C66.7,111.3,60.7,108.9,56.2,105.8 M56.2,127.3v9.5
		c0,2.6,1.9,5,5.8,7.2c3.8,2.2,9.1,3.9,15.7,5.2c6.6,1.3,13.8,1.9,21.5,1.9s14.9-0.6,21.5-1.9c6.6-1.3,11.8-3,15.7-5.2
		c3.8-2.2,5.8-4.6,5.8-7.2v-9.5c-4.4,3.1-10.5,5.5-18.2,7.1c-7.7,1.6-15.9,2.4-24.8,2.4s-17.1-0.8-24.8-2.4
		C66.7,132.8,60.7,130.4,56.2,127.3 M56.2,84.3v9.5c0,2.6,1.9,5,5.8,7.2s9.1,3.9,15.7,5.2c6.6,1.3,13.8,1.9,21.5,1.9
		s14.9-0.6,21.5-1.9c6.6-1.3,11.8-3,15.7-5.2s5.8-4.6,5.8-7.2v-9.5c-4.4,3.1-10.5,5.5-18.2,7.1s-15.9,2.4-24.8,2.4
		S82.1,93,74.4,91.4C66.7,89.8,60.7,87.4,56.2,84.3"/>
</g>
</svg>
