<?xml version="1.0" encoding="utf-8"?>
<!-- Generator: Adobe Illustrator 16.0.0, SVG Export Plug-In . SVG Version: 6.00 Build 0)  -->
<!DOCTYPE svg PUBLIC "-//W3C//DTD SVG 1.1//EN" "http://www.w3.org/Graphics/SVG/1.1/DTD/svg11.dtd">
<svg version="1.1" id="图层_1" xmlns="http://www.w3.org/2000/svg" xmlns:xlink="http://www.w3.org/1999/xlink" x="0px" y="0px"
	 width="200px" height="200px" viewBox="0 0 200 200" enable-background="new 0 0 200 200" xml:space="preserve">
<g>
	<defs>
		<rect id="SVGID_1_" width="200" height="200"/>
	</defs>
	<clipPath id="SVGID_2_">
		<use xlink:href="#SVGID_1_"  overflow="visible"/>
	</clipPath>
	<path clip-path="url(#SVGID_2_)" fill-rule="evenodd" clip-rule="evenodd" fill="#9EDC5C" d="M165.213,91.507
		c-6.564,0-10.782,1.907-16.123,4.637v-30.18c0-8.339-5.101-16.963-13.635-16.963h-28.042c2.085-4.365,3.159-9.155,3.159-14.197
		C110.572,15.614,94.953,0,75.75,0C56.224,0,40.927,15.186,40.927,34.572c0,5.149,1.082,10.018,3.179,14.429H16.045
		C7.947,49,0,57.404,0,65.964v37.98c0,2.016,1.187,3.834,3.014,4.628c1.827,0.789,3.948,0.405,5.385-0.985
		c3.936-3.799,11.031-6.354,17.655-6.354c13.81,0,25.477,11.541,25.477,25.201c0,13.662-11.801,25.203-25.77,25.203
		c-6.45,0-13.427-2.556-17.36-6.355c-1.444-1.394-3.565-1.776-5.387-0.985C1.187,145.091,0,146.91,0,148.925v37.98
		C0,194.618,6.598,200,16.045,200h119.41c8.537,0,13.635-4.896,13.635-13.095v-29.57c5.341,2.732,9.559,4.641,16.123,4.641
		c19.182,0,34.787-15.808,34.787-35.236C200,107.312,184.395,91.507,165.213,91.507 M93.875,18.328c0,1.322-1.372,2.191-2.549,1.614
		c-3.701-1.812-6.495-5.328-16.675-5.674c-9.916-0.337-12.326,3.642-15.598,5.467c-1.314,0.733-2.928-0.226-2.928-1.742
		c0-1.181,0.852-1.895,1.75-2.526c2.969-2.083,8.276-5.408,16.776-5.408c10,0,16.063,4.291,17.287,5.408
		c1.457,1.331,1.937,1.595,1.937,2.526V18.328z M97.076,24.369c-1.397,0-2.529-1.144-2.529-2.554c0-1.411,1.132-2.555,2.529-2.555
		s2.529,1.144,2.529,2.555C99.604,23.225,98.473,24.369,97.076,24.369"/>
</g>
</svg>
