<?xml version="1.0" encoding="utf-8"?>
<!-- Generator: Adobe Illustrator 16.0.0, SVG Export Plug-In . SVG Version: 6.00 Build 0)  -->
<!DOCTYPE svg PUBLIC "-//W3C//DTD SVG 1.1//EN" "http://www.w3.org/Graphics/SVG/1.1/DTD/svg11.dtd">
<svg version="1.1" id="图层_1" xmlns="http://www.w3.org/2000/svg" xmlns:xlink="http://www.w3.org/1999/xlink" x="0px" y="0px"
	 width="200px" height="200px" viewBox="0 0 200 200" enable-background="new 0 0 200 200" xml:space="preserve">
<g>
	<path fill-rule="evenodd" clip-rule="evenodd" fill="#FC5432" d="M192.926,97.734C181.666,86.461,97.242,2.093,97.242,2.093H29.77
		v67.5l13.162,13.176c5.791-1.888,11.861-3.175,18.281-3.175c32.673,0,59.149,26.491,59.149,59.149
		c0,6.42-1.285,12.505-3.188,18.295l8.209,8.211c0,0,11.26,11.245,22.492,0l45.037-44.996
		C192.926,120.253,204.143,109.008,192.926,97.734L192.926,97.734z M74.765,47.116c-6.21,6.196-16.294,6.224-22.519,0
		c-6.182-6.224-6.182-16.294,0-22.519c6.224-6.196,16.309-6.196,22.519,0C80.961,30.835,80.961,40.878,74.765,47.116L74.765,47.116z
		 M72.206,131.485v-4.504c-4.867,3.258-12.994,4.965-20.798,4.965c-7.819,0-15.931-1.707-20.798-4.965v10.699
		c0,3.133,7.749,7.482,20.393,7.581v-4.644c0-4.615,6.015-9.301,17.525-9.301C69.828,131.304,71.059,131.373,72.206,131.485
		L72.206,131.485z M30.609,155.5c0,3.133,7.749,7.469,20.393,7.553v-13.287c-7.693-0.056-15.609-1.763-20.393-4.979V155.5
		L30.609,155.5z M56.442,89.217c-30.016,0-54.353,24.337-54.353,54.339s24.337,54.352,54.353,54.352s54.353-24.336,54.353-54.352
		S86.444,89.217,56.442,89.217L56.442,89.217z M86.053,165.501c-0.084,4.588-6.112,9.175-17.526,9.175
		c-9.777,0-15.595-3.37-17.12-7.203v0.112c-12.266,0-25.316-4.238-25.316-12.085v-35.624c0-7.861,13.05-12.085,25.316-12.085
		c12.28,0,25.33,4.237,25.33,12.085v12.392c6.14,1.595,9.329,4.979,9.329,8.351v24.883H86.053L86.053,165.501z M55.631,159.584
		v5.917c0,1.328,4.377,4.392,12.896,4.392s12.896-3.077,12.896-4.392v-5.917c-2.938,1.679-7.259,2.798-12.896,2.798
		C62.89,162.382,58.568,161.263,55.631,159.584L55.631,159.584z M55.631,147.178v5.931c0,1.314,4.377,4.378,12.896,4.378
		s12.896-3.077,12.896-4.378v-5.931c-2.938,1.692-7.259,2.812-12.896,2.812C62.89,149.989,58.568,148.87,55.631,147.178
		L55.631,147.178z"/>
</g>
</svg>
