<?xml version="1.0" standalone="no"?><!DOCTYPE svg PUBLIC "-//W3C//DTD SVG 1.1//EN" "http://www.w3.org/Graphics/SVG/1.1/DTD/svg11.dtd"><svg t="1493714601652" class="icon" style="" viewBox="0 0 1024 1024" version="1.1" xmlns="http://www.w3.org/2000/svg" p-id="6919" xmlns:xlink="http://www.w3.org/1999/xlink" width="200" height="200"><defs><style type="text/css"></style></defs><path d="M533.007905 0.0032c9.564757 0.916796 19.139113 1.739192 28.69267 2.766387 63.674911 6.836769 123.471441 25.951882 178.527191 58.610934 108.010711 64.07171 178.904789 156.823289 212.088639 278.07874 10.097554 36.899033 14.748733 74.615662 14.900732 112.852289 0.153599 38.553425 0.0096 77.110051 0.0448 115.663476 0.016 18.484716-4.32798 35.841438-12.212745 52.566162-3.123186 6.62237-4.526379 14.065536-6.61757 21.163104-47.154986 160.092075-180.707981 282.645119-344.566439 316.028968-11.278349 2.29759-22.683097 4.059182-34.097445 5.543975-3.916782 0.508798-5.147177 2.435189-6.361571 5.631974-13.28154 34.967842-47.033387 56.842942-84.606017 54.980551-36.347035-1.799992-68.175691-27.799874-77.582048-63.370913-11.254349-42.564607 11.591947-86.538808 52.94696-101.911538 41.151814-15.297531 87.366004 3.337585 106.319518 43.158204 2.023991 4.251181 4.188781 5.246376 8.534361 4.51678 137.660176-23.087895 238.112521-96.919561 301.745833-221.035798 0.559997-1.091195 1.041595-2.22079 1.855992-3.971182-4.49438 0.455998-8.351962 0.999995-12.228745 1.217594-65.697302 3.684783-120.493854-47.878183-120.671453-113.621885-0.1024-37.764629-0.0736-75.529258-0.0064-113.293887 0.118399-65.934101 54.447753-117.685867 120.209055-113.898684 10.878351 0.625597 21.588702 4.201581 32.369453 6.441571 1.039995 0.215999 2.036791 0.631997 3.191986 0.999995C859.982423 207.103062 721.251852 61.988519 522.171154 57.122941c-204.320674-4.993577-354.340794 139.271369-393.361418 291.509079 7.849564-1.915191 15.684729-4.233581 23.675093-5.710374 59.463731-10.99035 120.268255 31.671856 130.10181 91.327586 1.252794 7.598366 1.881591 15.38233 1.923191 23.083095 0.193599 36.974232 0.179199 73.948465 0.0656 110.922697-0.171199 54.956551-37.158232 100.514745-90.834788 112.098692-61.87812 13.355139-124.489036-29.148668-134.834589-91.655585-1.052795-6.363171-1.753592-12.863942-1.779192-19.303913-0.151999-39.81902-0.910396-79.658839 0.0976-119.452259 3.692783-145.775339 62.895715-264.390802 177.011998-354.980791 58.318136-46.29579 125.044233-75.01726 198.365501-87.910002 17.68472-3.110386 35.723038-4.204781 53.596557-6.246372 1.705592-0.195199 3.395185-0.532798 5.091177-0.804796C505.195231 0.0032 519.100768 0.0032 533.007905 0.0032zM227.708488 512.476078c0-18.798315 0.0416-37.59823-0.0096-56.396544-0.088-32.457453-25.175886-57.897338-56.988542-57.857338-31.583857 0.04-56.690943 25.444685-56.758143 57.606139-0.0784 37.43983-0.0624 74.879661 0.0416 112.317891 0.0128 4.38878 0.404798 8.87516 1.375994 13.14394 6.422371 28.212672 33.01265 47.412585 61.007724 44.265399 29.497466-3.316785 51.145368-27.164677 51.310168-56.684543C227.791688 550.074307 227.706888 531.275993 227.708488 512.476078zM796.58911 512.00248c0 18.639916-0.0912 37.281431 0.0656 55.921347 0.0384 4.543979 0.427198 9.190358 1.452793 13.604738 6.55837 28.231872 33.311849 47.372585 61.174123 44.001401 29.628666-3.583984 50.978969-27.262276 51.057369-56.908542 0.0992-37.755029 0.0736-75.511658-0.0432-113.266687-0.0128-4.38078-0.508798-8.86076-1.515193-13.119941-6.62077-28.022273-33.06065-46.954987-60.871724-43.799802-29.521466 3.348785-51.130968 27.161477-51.297368 56.697343C796.502711 474.089052 796.59071 493.045766 796.58911 512.00248z" p-id="6920" fill="#666666"></path></svg>