<?xml version="1.0" standalone="no"?><!DOCTYPE svg PUBLIC "-//W3C//DTD SVG 1.1//EN" "http://www.w3.org/Graphics/SVG/1.1/DTD/svg11.dtd"><svg t="1491899031721" class="icon" style="" viewBox="0 0 1024 1024" version="1.1" xmlns="http://www.w3.org/2000/svg" p-id="999" xmlns:xlink="http://www.w3.org/1999/xlink" width="200" height="200"><defs><style type="text/css"></style></defs><path d="M459.149902 873.471029c0-28.785746 23.72264-52.167053 52.849719-52.167053s52.849719 23.381307 52.849719 52.167053a52.565275 52.565275 0 0 1-52.849719 52.167054 52.565275 52.565275 0 0 1-52.849719-52.167054zM853.332575 78.791024v866.416815c0 43.463063-35.783071 78.791024-79.815023 78.791023H250.481689A79.359912 79.359912 0 0 1 170.666667 945.207839V78.791024C170.666667 35.327961 206.449738 0 250.481689 0h523.035863C817.549503 0 853.332575 35.327961 853.332575 78.791024z m-53.191052 706.104104H223.857719v160.312711c0 14.506651 11.946653 26.282637 26.62397 26.282637h523.035863a26.453304 26.453304 0 0 0 26.623971-26.282637v-160.312711z m0-706.104104a26.453304 26.453304 0 0 0-26.623971-26.282638H250.481689a26.453304 26.453304 0 0 0-26.62397 26.282638v649.101501h576.283804V78.791024z" p-id="1000" fill="#777777"></path></svg>