<?xml version="1.0" encoding="utf-8"?>
<!-- Generator: Adobe Illustrator 16.0.0, SVG Export Plug-In . SVG Version: 6.00 Build 0)  -->
<!DOCTYPE svg PUBLIC "-//W3C//DTD SVG 1.1//EN" "http://www.w3.org/Graphics/SVG/1.1/DTD/svg11.dtd">
<svg version="1.1" id="图层_1" xmlns="http://www.w3.org/2000/svg" xmlns:xlink="http://www.w3.org/1999/xlink" x="0px" y="0px"
	 width="200px" height="200px" viewBox="0 0 200 200" enable-background="new 0 0 200 200" xml:space="preserve">
<g>
	<defs>
		<rect id="SVGID_1_" width="200" height="200"/>
	</defs>
	<clipPath id="SVGID_2_">
		<use xlink:href="#SVGID_1_"  overflow="visible"/>
	</clipPath>
	<path clip-path="url(#SVGID_2_)" fill-rule="evenodd" clip-rule="evenodd" fill="#9EDC5C" d="M199.255,86.035
		c-0.784-4.373-4.979-8.825-9.331-9.81l-3.254-0.748c-7.646-2.325-14.43-7.407-18.742-14.892c-4.313-7.524-5.332-16.073-3.45-23.913
		l1.02-3.073c1.294-4.254-0.393-10.124-3.804-13.04c0,0-3.058-2.6-11.684-7.603c-8.626-4.964-12.351-6.343-12.351-6.343
		c-4.195-1.536-10.076-0.078-13.135,3.191l-2.273,2.443c-5.804,5.515-13.605,8.864-22.231,8.864s-16.507-3.388-22.309-8.943
		l-2.196-2.364c-3.019-3.269-8.939-4.727-13.135-3.191c0,0-3.764,1.379-12.389,6.343c-8.626,5.043-11.645,7.643-11.645,7.643
		c-3.411,2.876-5.097,8.706-3.803,13l0.941,3.113c1.842,7.839,0.862,16.349-3.451,23.873C27.72,68.109,20.858,73.23,13.174,75.516
		l-3.136,0.709c-4.313,0.985-8.548,5.397-9.332,9.81c0,0-0.706,3.939-0.706,13.946c0,10.006,0.706,13.946,0.706,13.946
		c0.784,4.412,4.98,8.824,9.332,9.809l3.058,0.709c7.685,2.285,14.585,7.407,18.898,14.971c4.313,7.524,5.332,16.073,3.45,23.913
		l-0.901,3.033c-1.294,4.255,0.392,10.125,3.803,13.04c0,0,3.058,2.601,11.684,7.604c8.626,5.004,12.35,6.343,12.35,6.343
		c4.196,1.537,10.077,0.079,13.135-3.191l2.156-2.324c5.842-5.555,13.684-8.942,22.349-8.942s16.546,3.427,22.349,8.981l2.156,2.324
		c3.02,3.271,8.939,4.729,13.135,3.192c0,0,3.765-1.379,12.39-6.343c8.626-5.004,11.645-7.604,11.645-7.604
		c3.411-2.875,5.098-8.745,3.804-13.039l-0.941-3.152c-1.842-7.8-0.862-16.31,3.451-23.795c4.313-7.523,11.213-12.685,18.897-14.97
		l3.059-0.709c4.313-0.985,8.547-5.397,9.332-9.81c0,0,0.705-3.939,0.705-13.946C199.961,89.974,199.255,86.035,199.255,86.035
		 M100.02,140.046c-21.996,0-39.875-17.926-39.875-40.065c0-22.101,17.84-40.026,39.875-40.026
		c21.996,0,39.875,17.925,39.875,40.065C139.854,122.12,122.016,140.046,100.02,140.046"/>
</g>
</svg>
