<?xml version="1.0" standalone="no"?><!DOCTYPE svg PUBLIC "-//W3C//DTD SVG 1.1//EN" "http://www.w3.org/Graphics/SVG/1.1/DTD/svg11.dtd"><svg t="1483681304701" class="icon" style="" viewBox="0 0 1024 1024" version="1.1" xmlns="http://www.w3.org/2000/svg" p-id="2889" xmlns:xlink="http://www.w3.org/1999/xlink" width="200" height="200"><defs><style type="text/css"></style></defs><path d="M592.715 291.996h430.478v161.429h-430.478v-161.429z" p-id="2890" fill="#ff8315"></path><path d="M270.071 30.965c-53.702-25.506-127.475 2.099-152.981 55.801s-2.637 129.843 60.59 160.138c53.595 25.667 263.668 71.945 289.174 18.242 25.559-53.595-143.079-208.674-196.782-234.18v0zM200.764 186.368c-26.851-12.753-38.259-42.457-25.506-69.307 12.753-26.851 44.877-28.681 71.675-15.929 26.851 12.753 135.493 91.046 122.74 117.897s-142.058-19.91-168.909-32.663v0z" p-id="2891" fill="#ff8315"></path><path d="M592.715 507.235h376.668v538.098h-376.668v-538.098z" p-id="2892" fill="#ff8315"></path><path d="M0.807 291.996h430.478v161.429h-430.478v-161.429z" p-id="2893" fill="#ff8315"></path><path d="M54.617 507.235h376.668v538.098h-376.668v-538.098z" p-id="2894" fill="#ff8315"></path><path d="M906.964 86.766c-25.506-53.702-99.279-81.307-152.981-55.801s-222.342 180.532-196.836 234.234 235.579 7.426 289.228-18.242c63.226-30.295 86.096-106.49 60.59-160.192v0zM823.236 186.368c-26.851 12.753-156.156 59.514-168.963 32.663-12.699-26.851 95.943-105.143 122.74-117.897 26.851-12.753 58.976-10.923 71.675 15.929 12.807 26.851 1.399 56.554-25.452 69.307v0z" p-id="2895" fill="#ff8315"></path></svg>